<?xml version="1.0" encoding="UTF-8" standalone="no"?>
<!-- Created with Inkscape (http://www.inkscape.org/) -->
<svg id="svg2" xmlns:rdf="http://www.w3.org/1999/02/22-rdf-syntax-ns#" xmlns="http://www.w3.org/2000/svg" height="41.623mm" width="34.598mm" version="1.1" xmlns:cc="http://creativecommons.org/ns#" xmlns:dc="http://purl.org/dc/elements/1.1/" viewBox="0 0 122.59024 147.48474">
 <metadata id="metadata7">
  <rdf:RDF>
   <cc:Work rdf:about="">
    <dc:format>image/svg+xml</dc:format>
    <dc:type rdf:resource="http://purl.org/dc/dcmitype/StillImage"/>
    <dc:title/>
   </cc:Work>
  </rdf:RDF>
 </metadata>
 <g id="layer1" transform="translate(-13.98 -6.9137)">
  <rect id="rect4162" style="fill-rule:evenodd;fill:#5f8dd3" transform="rotate(-12.893)" ry="7.249" height="84.531" width="14.498" y="76.52" x="5.2"/>
  <path id="path4160" style="fill:#80b3ff" d="m72.722 105.07c-1.7997 0.0998-3.3573-0.58921-4.5514-2.0132l-0.66956-0.79843-9.2722-37.002-9.2722-37.002 0.41714-1.103c0.49623-1.3122 2.5637-4.2788 4.2338-6.0751 6.0505-6.5078 15.078-9.9828 24.025-9.2478 1.9739 0.16215 6.3586 1.1176 7.6256 1.6616 0.34191 0.14679 1.0358 0.4422 1.542 0.65645 0.50617 0.21424 1.8188 0.86905 2.9169 1.4551 3.5394 1.8889 5.4986 2.5032 8.8154 2.7641 1.9686 0.15486 2.2453 0.12089 5.3083-0.65186 2.964-0.74775 3.3661-0.89999 4.858-1.8392 2.3985-1.5099 3.9911-2.9975 5.6533-5.2808 1.9018-2.6122 2.7055-3.2446 4.5468-3.5772 1.6265-0.29377 3.1714 0.0526 4.3235 0.9695 1.6374 1.3031 1.1932-0.18377 7.5296 25.201l5.8187 23.311-0.33477 0.97138c-1.1025 3.1991-5.8628 8.3935-10.143 11.068-5.0206 3.1371-11.663 4.825-17.517 4.4508-4.7118-0.30116-8.8798-1.5966-13.474-4.1878-4.8337-2.7265-10.305-3.1335-15.52-1.1542-1.1382 0.43197-2.4604 1.0345-2.9382 1.339-1.226 0.78121-3.2891 2.5209-4.2603 3.5923l-0.82404 0.90911 3.2904 13.049c3.2355 12.832 3.2869 13.066 3.0805 14.064-0.52117 2.5213-2.6246 4.326-5.2089 4.4693z"/>
  <rect id="rect4162-5-2" style="fill-rule:evenodd;fill:#5f8dd3" transform="matrix(.22313 .97479 .97479 -.22313 0 0)" ry="7.249" height="84.531" width="14.498" y="-9.7894" x="99.004"/>
  <rect id="rect4162-5" style="fill-rule:evenodd;fill:#80b3ff" transform="rotate(-12.893)" ry="7.249" height="84.531" width="14.498" y="76.52" x="42.674"/>
  <rect id="rect4162-5-2-2" style="fill-rule:evenodd;fill:#5f8dd3" transform="matrix(.22313 .97479 .97479 -.22313 0 0)" ry="7.249" height="84.531" width="14.498" y="-9.7894" x="126.03"/>
 </g>
</svg>
